<?xml version="1.0" ?><!-- Created with Inkscape (http://www.inkscape.org/) --><!DOCTYPE svg  PUBLIC '-//W3C//DTD SVG 1.1//EN'  'http://www.w3.org/Graphics/SVG/1.1/DTD/svg11.dtd' [
	<!ENTITY stroke_color "#000000">
	<!ENTITY fill_color "#ffffff">
]><svg height="55" id="Layer_1" version="1.1" viewBox="0 0 55 55.000001" width="55" xml:space="preserve" xmlns="http://www.w3.org/2000/svg" xmlns:cc="http://creativecommons.org/ns#" xmlns:dc="http://purl.org/dc/elements/1.1/" xmlns:rdf="http://www.w3.org/1999/02/22-rdf-syntax-ns#" xmlns:svg="http://www.w3.org/2000/svg"><metadata id="metadata9"><rdf:RDF><cc:Work rdf:about=""><dc:format>image/svg+xml</dc:format><dc:type rdf:resource="http://purl.org/dc/dcmitype/StillImage"/><dc:title/></cc:Work></rdf:RDF></metadata><defs id="defs7"/><path d="m 47.059609,26.226127 c 0.08371,-0.610641 0.126634,-1.234158 0.126634,-1.868408 0,-7.487577 -6.035512,-13.557484 -13.48117,-13.557484 -5.487658,0 -10.209609,3.297346 -12.313559,8.029534 -1.237366,-1.033473 -2.826732,-1.654307 -4.560976,-1.654307 -3.944975,0 -7.1430242,3.215784 -7.1430242,7.182794 0,0.589176 0.070829,1.161717 0.2033658,1.709576 -0.082097,-0.0021 -0.1652683,-0.0032 -0.2479024,-0.0032 -4.9548288,-0.0011 -8.97224309,4.038377 -8.97224309,9.022226 0,4.983848 4.01741429,9.023299 9.01731619,9.112908 l 35.7124367,-0.08961 c 4.936048,-0.02415 8.928779,-4.054476 8.928779,-9.023299 0,-4.397355 -3.128293,-8.060656 -7.269657,-8.860711 z m -4.016342,6.346786 c -0.959951,0.965325 -2.468828,1.044205 -3.53556,0.253271 L 39.255512,32.572913 34.683804,27.975946 V 39.62156 c 0,1.486891 -1.198731,2.693682 -2.678096,2.693682 -1.479366,0 -2.678098,-1.206254 -2.678098,-2.693682 V 28.130484 l -4.298049,4.321697 -0.268829,0.236636 c -1.050097,0.808104 -2.558438,0.729225 -3.518926,-0.236636 -0.960488,-0.965863 -1.038829,-2.482803 -0.252731,-3.555446 l 0.252731,-0.253807 8.579999,-8.628369 c 0.485074,-0.686298 1.283513,-1.134351 2.183903,-1.134351 0.539804,0 1.042048,0.160441 1.462731,0.436784 0.242536,0.125026 0.470585,0.289223 0.672878,0.493664 l 8.90195,8.951932 0.235561,0.270977 c 0.803268,1.056009 0.724927,2.57295 -0.235561,3.539348 z" id="path3" style="fill:&fill_color;;stroke:&stroke_color;;stroke-width:1.34146917;stroke-linecap:round;stroke-linejoin:round;stroke-miterlimit:4;stroke-dasharray:none"/></svg>