<?xml version="1.0" ?><!-- Created with Inkscape (http://www.inkscape.org/) --><!DOCTYPE svg  PUBLIC '-//W3C//DTD SVG 1.1//EN'  'http://www.w3.org/Graphics/SVG/1.1/DTD/svg11.dtd' [
	<!ENTITY stroke_color "#000000">
	<!ENTITY fill_color "#ffffff">
]><svg height="55" id="Layer_1" inkscape:version="0.48.4 r9939" sodipodi:docname="Twitter.svg" version="1.1" viewBox="0 0 55 55" width="55" xml:space="preserve" xmlns="http://www.w3.org/2000/svg" xmlns:cc="http://creativecommons.org/ns#" xmlns:dc="http://purl.org/dc/elements/1.1/" xmlns:inkscape="http://www.inkscape.org/namespaces/inkscape" xmlns:rdf="http://www.w3.org/1999/02/22-rdf-syntax-ns#" xmlns:sodipodi="http://sodipodi.sourceforge.net/DTD/sodipodi-0.dtd" xmlns:svg="http://www.w3.org/2000/svg"><sodipodi:namedview bordercolor="#666666" borderopacity="1" gridtolerance="10" guidetolerance="10" id="namedview9" inkscape:current-layer="Layer_1" inkscape:cx="27.5" inkscape:cy="27.5" inkscape:pageopacity="0" inkscape:pageshadow="2" inkscape:window-height="480" inkscape:window-maximized="0" inkscape:window-width="640" inkscape:window-x="0" inkscape:window-y="25" inkscape:zoom="4.2909091" objecttolerance="10" pagecolor="#ffffff" showgrid="false"/><metadata id="metadata13"><rdf:RDF><cc:Work rdf:about=""><dc:format>image/svg+xml</dc:format><dc:type rdf:resource="http://purl.org/dc/dcmitype/StillImage"/><dc:title/></cc:Work></rdf:RDF></metadata><defs id="defs11"/><g id="g2986" style="fill:&fill_color;;stroke:&stroke_color;"><rect height="54" id="rect3" ry="3.5" style="fill:&stroke_color;;stroke:&stroke_color;" width="54" x="0.5" y="0.5"/><g id="g3017" style="fill:&fill_color;;stroke:&stroke_color;" transform="matrix(0.2,0,0,-0.2,7.5,43.7536)"><g id="g3019" style="fill:&fill_color;;stroke:&stroke_color;" transform="scale(0.1,0.1)"><path d="m 2000,1432.96 c -73.58,-32.64 -152.67,-54.69 -235.66,-64.61 84.7,50.78 149.77,131.19 180.41,227.01 -79.29,-47.03 -167.1,-81.17 -260.57,-99.57 -74.84,79.75 -181.48,129.57 -299.5,129.57 -226.6,0 -410.328,-183.71 -410.328,-410.31 0,-32.16 3.628,-63.48 10.625,-93.51 -341.016,17.11 -643.368,180.47 -845.739,428.72 -35.324,-60.6 -55.5583,-131.09 -55.5583,-206.29 0,-142.36 72.4373,-267.95 182.5433,-341.53 -67.262,2.13 -130.535,20.59 -185.8519,51.32 -0.0391,-1.71 -0.0391,-3.42 -0.0391,-5.16 0,-198.803 141.441,-364.635 329.145,-402.342 -34.426,-9.375 -70.676,-14.395 -108.098,-14.395 -26.441,0 -52.145,2.578 -77.203,7.364 C 276.391,476.219 427.926,357.578 607.48,354.281 467.051,244.219 290.129,178.621 97.8828,178.621 64.7617,178.621 32.0977,180.57 0,184.359 181.586,67.9414 397.27,0 628.988,0 1383.72,0 1796.45,625.238 1796.45,1167.47 c 0,17.79 -0.41,35.48 -1.2,53.08 80.18,57.86 149.74,130.12 204.75,212.41" id="path3021" style="fill:&fill_color;;fill-opacity:1;fill-rule:nonzero;stroke:&stroke_color;"/></g></g></g></svg>